<mxfile host="app.diagrams.net" modified="2020-10-13T10:21:30.263Z" agent="5.0 (Macintosh; Intel Mac OS X 10_15_6) AppleWebKit/537.36 (KHTML, like Gecko) Chrome/86.0.4240.75 Safari/537.36" etag="ocYLGQ2UdPk-vwOI-NMP" version="13.7.9" type="github">
  <diagram name="Page-1" id="e7e014a7-5840-1c2e-5031-d8a46d1fe8dd">
    <mxGraphModel dx="948" dy="539" grid="1" gridSize="10" guides="1" tooltips="1" connect="1" arrows="1" fold="1" page="1" pageScale="1" pageWidth="1169" pageHeight="826" background="#ffffff" math="0" shadow="0">
      <root>
        <mxCell id="0" />
        <mxCell id="1" parent="0" />
        <mxCell id="v0OAdbENXLN65hQ7vuq4-41" value="Actor" style="shape=umlActor;verticalLabelPosition=bottom;verticalAlign=top;html=1;" vertex="1" parent="1">
          <mxGeometry x="150" y="120" width="30" height="60" as="geometry" />
        </mxCell>
        <mxCell id="v0OAdbENXLN65hQ7vuq4-42" value="" style="ellipse;html=1;shape=startState;fillColor=#000000;strokeColor=#ff0000;" vertex="1" parent="1">
          <mxGeometry x="150" y="200" width="30" height="30" as="geometry" />
        </mxCell>
        <mxCell id="v0OAdbENXLN65hQ7vuq4-43" value="" style="edgeStyle=orthogonalEdgeStyle;html=1;verticalAlign=bottom;endArrow=open;endSize=8;strokeColor=#ff0000;" edge="1" source="v0OAdbENXLN65hQ7vuq4-42" parent="1">
          <mxGeometry relative="1" as="geometry">
            <mxPoint x="165" y="290" as="targetPoint" />
          </mxGeometry>
        </mxCell>
        <mxCell id="v0OAdbENXLN65hQ7vuq4-50" value="Card validation verification" style="whiteSpace=wrap;html=1;rounded=1;arcSize=50;align=center;verticalAlign=middle;strokeWidth=1;autosize=1;spacing=4;treeFolding=1;treeMoving=1;newEdgeStyle={&quot;edgeStyle&quot;:&quot;entityRelationEdgeStyle&quot;,&quot;startArrow&quot;:&quot;none&quot;,&quot;endArrow&quot;:&quot;none&quot;,&quot;segment&quot;:10,&quot;curved&quot;:1};" vertex="1" parent="1">
          <mxGeometry x="75.5" y="290" width="180" height="30" as="geometry" />
        </mxCell>
        <mxCell id="v0OAdbENXLN65hQ7vuq4-52" style="edgeStyle=orthogonalEdgeStyle;rounded=0;orthogonalLoop=1;jettySize=auto;html=1;exitX=1;exitY=0.25;exitDx=0;exitDy=0;entryX=1;entryY=0.5;entryDx=0;entryDy=0;" edge="1" parent="1" source="v0OAdbENXLN65hQ7vuq4-50" target="v0OAdbENXLN65hQ7vuq4-50">
          <mxGeometry relative="1" as="geometry" />
        </mxCell>
        <mxCell id="v0OAdbENXLN65hQ7vuq4-53" value="" style="rounded=0;html=1;jettySize=auto;orthogonalLoop=1;fontSize=11;endArrow=block;endFill=0;endSize=8;strokeWidth=1;shadow=1;labelBackgroundColor=none;edgeStyle=orthogonalEdgeStyle;" edge="1" parent="1">
          <mxGeometry relative="1" as="geometry">
            <mxPoint x="165" y="320" as="sourcePoint" />
            <mxPoint x="165" y="370" as="targetPoint" />
            <Array as="points">
              <mxPoint x="165" y="340" />
              <mxPoint x="165" y="340" />
            </Array>
          </mxGeometry>
        </mxCell>
        <mxCell id="v0OAdbENXLN65hQ7vuq4-54" value="" style="rounded=0;html=1;jettySize=auto;orthogonalLoop=1;fontSize=11;endArrow=block;endFill=0;endSize=8;strokeWidth=1;shadow=1;labelBackgroundColor=none;edgeStyle=orthogonalEdgeStyle;" edge="1" parent="1">
          <mxGeometry relative="1" as="geometry">
            <mxPoint x="165" y="413" as="sourcePoint" />
            <mxPoint x="165" y="463" as="targetPoint" />
            <Array as="points">
              <mxPoint x="165" y="450" />
              <mxPoint x="165" y="450" />
            </Array>
          </mxGeometry>
        </mxCell>
        <mxCell id="v0OAdbENXLN65hQ7vuq4-57" value="&lt;meta charset=&quot;utf-8&quot;&gt;&lt;span style=&quot;color: rgb(0, 0, 0); font-family: helvetica; font-size: 11px; font-style: normal; font-weight: 400; letter-spacing: normal; text-align: center; text-indent: 0px; text-transform: none; word-spacing: 0px; background-color: rgb(255, 255, 255); display: inline; float: none;&quot;&gt;[correct]&lt;/span&gt;" style="html=1;verticalAlign=bottom;endArrow=block;" edge="1" parent="1">
          <mxGeometry width="80" relative="1" as="geometry">
            <mxPoint x="190" y="389.75" as="sourcePoint" />
            <mxPoint x="304.5" y="390.25" as="targetPoint" />
          </mxGeometry>
        </mxCell>
        <mxCell id="v0OAdbENXLN65hQ7vuq4-58" value="" style="html=1;whiteSpace=wrap;aspect=fixed;shape=isoRectangle;" vertex="1" parent="1">
          <mxGeometry x="130" y="370" width="67.5" height="40.5" as="geometry" />
        </mxCell>
      </root>
    </mxGraphModel>
  </diagram>
</mxfile>
